# xmcd
# 
# Track frame offsets:
#     225
#     16910
#     31034
#     48495
#     65406
#     86379
#     102489
#     120024
#     135471
#     152197
#     171756
# 
# Disc length: 2550
# 
# Revision: 2
# Processed by: cddbd v1.5.2PL0 Copyright (c) Steve Scherf et al.
# Submitted via: fre:ac v1.0.27
# 
DISCID=7d09f30b
DTITLE=Seventh Day Slumber - Finally Awake
DYEAR=2007
DGENRE=Hard Rock
TTITLE0=Awake
TTITLE1=Last Regret
TTITLE2=Missing Pages
TTITLE3=My Only Hope
TTITLE4=Always
TTITLE5=Breaking Away
TTITLE6=Burning Bridges
TTITLE7=Undone
TTITLE8=On My Way Home
TTITLE9=Broken Buildings
TTITLE10=Every Saturday
EXTD=
EXTT0=
EXTT1=
EXTT2=
EXTT3=
EXTT4=
EXTT5=
EXTT6=
EXTT7=
EXTT8=
EXTT9=
EXTT10=
PLAYORDER=
